<?xml version="1.0" encoding="UTF-8"?>
<svg id="Layer_2" data-name="Layer 2" xmlns="http://www.w3.org/2000/svg" viewBox="0 0 746.64 43.74">
  <defs>
    <style>
      .cls-1 {
        fill: #fff;
        stroke: #fff;
        stroke-miterlimit: 10;
      }
    </style>
  </defs>
  <g id="Capa_1" data-name="Capa 1">
    <g>
      <path class="cls-1" d="M41.68,26.93c.41.79.96,1.44,1.64,1.93s1.48.86,2.4,1.09c.92.24,1.87.36,2.86.36.67,0,1.38-.05,2.14-.17.76-.11,1.48-.32,2.14-.64.67-.32,1.22-.75,1.67-1.31.44-.55.67-1.26.67-2.12,0-.92-.29-1.67-.88-2.24-.59-.57-1.36-1.05-2.31-1.43s-2.03-.71-3.24-1-2.43-.6-3.66-.95c-1.27-.32-2.51-.71-3.71-1.17s-2.28-1.05-3.24-1.79c-.95-.73-1.72-1.64-2.31-2.74-.59-1.09-.88-2.42-.88-3.97,0-1.75.37-3.26,1.12-4.55.75-1.28,1.72-2.36,2.93-3.21,1.21-.86,2.57-1.49,4.09-1.9s3.05-.62,4.57-.62c1.78,0,3.48.2,5.12.59,1.63.4,3.09,1.04,4.36,1.93,1.27.89,2.28,2.02,3.02,3.4.75,1.38,1.12,3.05,1.12,5.02h-7.23c-.06-1.01-.28-1.86-.64-2.52-.37-.67-.85-1.19-1.45-1.57s-1.29-.65-2.07-.81-1.63-.24-2.55-.24c-.6,0-1.21.06-1.81.19s-1.15.35-1.64.67-.9.71-1.21,1.19c-.32.48-.48,1.08-.48,1.81,0,.67.13,1.21.38,1.62s.75.79,1.5,1.14,1.78.7,3.09,1.05c1.32.35,3.04.79,5.16,1.33.63.13,1.52.36,2.64.69s2.24.87,3.36,1.59c1.11.73,2.07,1.71,2.88,2.93s1.21,2.78,1.21,4.69c0,1.56-.3,3-.9,4.33s-1.5,2.48-2.69,3.45-2.67,1.72-4.43,2.26-3.8.81-6.12.81c-1.87,0-3.69-.23-5.45-.69-1.76-.46-3.32-1.18-4.66-2.17-1.35-.98-2.42-2.24-3.21-3.76-.79-1.52-1.17-3.33-1.14-5.43h7.23c0,1.14.21,2.11.62,2.9v.03Z"/>
      <path class="cls-1" d="M65.55,10.34c.65-2.21,1.53-3.97,2.64-5.31,1.11-1.33,2.4-2.29,3.88-2.86,1.48-.57,3.04-.86,4.69-.86s3.26.29,4.74.86c1.47.57,2.78,1.52,3.9,2.86,1.13,1.33,2.01,3.1,2.67,5.31s.98,4.93.98,8.16-.33,6.12-.98,8.35c-.65,2.24-1.54,4.02-2.67,5.35-1.13,1.33-2.43,2.29-3.9,2.86-1.48.57-3.05.86-4.74.86s-3.21-.29-4.69-.86c-1.48-.57-2.77-1.52-3.88-2.86-1.11-1.33-1.99-3.12-2.64-5.35-.65-2.24-.98-5.02-.98-8.35s.33-5.96.98-8.16ZM71.43,21.96c.06,1.35.26,2.65.59,3.9.33,1.25.86,2.33,1.59,3.21.73.89,1.78,1.33,3.14,1.33s2.47-.44,3.21-1.33c.75-.89,1.29-1.96,1.62-3.21s.53-2.55.59-3.9.1-2.5.1-3.45c0-.57,0-1.26-.02-2.07s-.08-1.64-.19-2.5-.27-1.71-.48-2.55c-.21-.84-.52-1.59-.93-2.26s-.94-1.21-1.57-1.62c-.64-.41-1.41-.62-2.33-.62s-1.69.21-2.31.62c-.62.41-1.13.95-1.52,1.62s-.71,1.42-.93,2.26-.38,1.69-.48,2.55c-.1.86-.15,1.69-.17,2.5s-.02,1.5-.02,2.07c0,.95.03,2.1.09,3.45h.02Z"/>
      <path class="cls-1" d="M103.22,15.46c.82-.06,1.59-.25,2.31-.55.71-.3,1.3-.74,1.76-1.31s.69-1.33.69-2.28c0-1.43-.48-2.52-1.43-3.28s-2.05-1.14-3.28-1.14c-1.71,0-3.01.56-3.88,1.69-.87,1.13-1.29,2.55-1.26,4.26h-6.42c.06-1.71.37-3.28.93-4.69.55-1.41,1.33-2.62,2.33-3.64s2.2-1.8,3.59-2.36c1.4-.55,2.95-.83,4.66-.83,1.33,0,2.67.2,4,.6s2.53.99,3.59,1.78,1.93,1.76,2.59,2.9c.67,1.14,1,2.46,1,3.95,0,1.62-.39,3.05-1.17,4.28s-1.94,2.08-3.5,2.52v.09c1.84.41,3.28,1.3,4.33,2.67s1.57,3,1.57,4.9c0,1.75-.34,3.3-1.02,4.66-.68,1.37-1.59,2.51-2.74,3.43-1.14.92-2.46,1.62-3.95,2.09-1.49.48-3.05.71-4.66.71-1.87,0-3.58-.27-5.12-.81s-2.85-1.32-3.93-2.36c-1.08-1.03-1.91-2.29-2.5-3.78s-.87-3.2-.83-5.14h6.42c.03.89.17,1.74.43,2.55.25.81.62,1.51,1.09,2.09s1.07,1.05,1.78,1.4c.71.35,1.56.52,2.55.52,1.52,0,2.81-.47,3.85-1.4s1.57-2.21,1.57-3.83c0-1.27-.25-2.24-.74-2.9-.49-.67-1.12-1.15-1.88-1.45-.76-.3-1.59-.48-2.5-.52s-1.77-.07-2.59-.07v-4.76c.73.06,1.51.06,2.33,0h.03Z"/>
      <path class="cls-1" d="M126.01,29.64c.79.83,1.78,1.24,2.95,1.24,1.24,0,2.25-.36,3.05-1.07.79-.71,1.43-1.59,1.9-2.62s.82-2.13,1.02-3.31c.21-1.17.34-2.22.4-3.14l-.1-.09c-.92,1.33-2,2.28-3.24,2.86-1.24.57-2.67.86-4.28.86-1.43,0-2.82-.31-4.19-.93s-2.52-1.45-3.47-2.5c-.89-1.01-1.54-2.17-1.95-3.47s-.62-2.62-.62-3.95c0-1.71.28-3.31.83-4.78.55-1.48,1.35-2.76,2.38-3.86,1.03-1.09,2.26-1.96,3.69-2.59,1.43-.63,3.01-.95,4.76-.95,2.54,0,4.62.5,6.26,1.5,1.63,1,2.94,2.32,3.93,3.95.98,1.63,1.67,3.48,2.05,5.54s.57,4.14.57,6.23-.24,4.12-.71,6.19-1.24,3.93-2.28,5.59c-1.05,1.67-2.4,3.01-4.05,4.05-1.65,1.03-3.66,1.55-6.04,1.55-1.43,0-2.76-.2-4-.6s-2.33-.99-3.28-1.78-1.73-1.76-2.33-2.9c-.6-1.14-1-2.44-1.19-3.9h6.42c.22,1.11.73,2.08,1.52,2.9v-.02ZM131.72,18.77c.67-.33,1.22-.79,1.67-1.36.44-.57.78-1.23,1-1.98s.33-1.53.33-2.36c0-.76-.12-1.51-.36-2.26s-.59-1.41-1.05-2-1.02-1.05-1.69-1.4-1.43-.52-2.29-.52c-.79,0-1.51.17-2.14.52-.63.35-1.17.81-1.62,1.38s-.78,1.22-1,1.95-.33,1.48-.33,2.24.1,1.56.31,2.31c.21.75.51,1.41.93,2,.41.59.94,1.06,1.59,1.43s1.4.55,2.26.55c.92,0,1.71-.17,2.38-.5h.01Z"/>
      <path class="cls-1" d="M184.88,1.32v6.28h-17.94v7.28h16.47v5.81h-16.47v8.33h18.32v6.28h-25.79V1.32h25.41Z"/>
      <path class="cls-1" d="M196.02,26.93c.41.79.96,1.44,1.64,1.93s1.48.86,2.4,1.09c.92.24,1.87.36,2.86.36.67,0,1.38-.05,2.14-.17.76-.11,1.48-.32,2.14-.64.67-.32,1.22-.75,1.67-1.31.44-.55.67-1.26.67-2.12,0-.92-.29-1.67-.88-2.24-.59-.57-1.36-1.05-2.31-1.43s-2.03-.71-3.24-1-2.43-.6-3.66-.95c-1.27-.32-2.51-.71-3.71-1.17s-2.28-1.05-3.24-1.79c-.95-.73-1.72-1.64-2.31-2.74-.59-1.09-.88-2.42-.88-3.97,0-1.75.37-3.26,1.12-4.55.75-1.28,1.72-2.36,2.93-3.21,1.21-.86,2.57-1.49,4.09-1.9,1.52-.41,3.05-.62,4.57-.62,1.78,0,3.48.2,5.12.59,1.63.4,3.09,1.04,4.36,1.93,1.27.89,2.28,2.02,3.02,3.4.75,1.38,1.12,3.05,1.12,5.02h-7.23c-.06-1.01-.28-1.86-.64-2.52-.37-.67-.85-1.19-1.45-1.57-.6-.38-1.29-.65-2.07-.81-.78-.16-1.63-.24-2.55-.24-.6,0-1.21.06-1.81.19s-1.15.35-1.64.67-.9.71-1.21,1.19c-.32.48-.48,1.08-.48,1.81,0,.67.13,1.21.38,1.62s.75.79,1.5,1.14,1.78.7,3.09,1.05c1.32.35,3.04.79,5.16,1.33.63.13,1.52.36,2.64.69,1.13.33,2.24.87,3.36,1.59,1.11.73,2.07,1.71,2.88,2.93.81,1.22,1.21,2.78,1.21,4.69,0,1.56-.3,3-.9,4.33s-1.5,2.48-2.69,3.45-2.67,1.72-4.43,2.26-3.8.81-6.12.81c-1.87,0-3.69-.23-5.45-.69s-3.32-1.18-4.66-2.17c-1.35-.98-2.42-2.24-3.21-3.76-.79-1.52-1.17-3.33-1.14-5.43h7.23c0,1.14.21,2.11.62,2.9v.03Z"/>
      <path class="cls-1" d="M218.53,7.61V1.33h27.84v6.28h-10.18v27.7h-7.47V7.61h-10.19Z"/>
      <path class="cls-1" d="M252.04,27.98v7.33h-7.47v-7.33h7.47Z"/>
      <path class="cls-1" d="M270.6,9.49c.51-1.63,1.27-3.06,2.29-4.28,1.01-1.22,2.29-2.17,3.83-2.86,1.54-.68,3.31-1.02,5.31-1.02,1.52,0,2.97.24,4.35.71,1.38.48,2.59,1.16,3.64,2.05,1.05.89,1.88,1.98,2.5,3.28s.93,2.76.93,4.38-.27,3.13-.81,4.33c-.54,1.21-1.25,2.28-2.14,3.21-.89.94-1.9,1.78-3.02,2.55-1.13.76-2.26,1.52-3.4,2.26-1.14.75-2.25,1.55-3.33,2.4-1.08.86-2.03,1.86-2.86,3h15.75v5.81h-24.46c0-1.93.28-3.62.83-5.04.55-1.43,1.31-2.7,2.26-3.83.95-1.13,2.07-2.17,3.36-3.12s2.64-1.92,4.07-2.9c.73-.51,1.51-1.02,2.33-1.55.82-.52,1.58-1.1,2.26-1.74.68-.63,1.25-1.35,1.71-2.14s.69-1.7.69-2.71c0-1.62-.47-2.88-1.4-3.78-.94-.9-2.13-1.36-3.59-1.36-.98,0-1.82.23-2.5.69s-1.23,1.06-1.64,1.81-.71,1.57-.88,2.47-.26,1.8-.26,2.69h-6.47c-.06-1.9.16-3.67.67-5.31h-.02Z"/>
      <path class="cls-1" d="M296.61,10.34c.65-2.21,1.53-3.97,2.64-5.31,1.11-1.33,2.4-2.29,3.88-2.86,1.48-.57,3.04-.86,4.69-.86s3.26.29,4.74.86c1.47.57,2.78,1.52,3.9,2.86,1.13,1.33,2.01,3.1,2.67,5.31s.98,4.93.98,8.16-.33,6.12-.98,8.35c-.65,2.24-1.54,4.02-2.67,5.35-1.13,1.33-2.43,2.29-3.9,2.86-1.48.57-3.05.86-4.74.86s-3.21-.29-4.69-.86c-1.48-.57-2.77-1.52-3.88-2.86-1.11-1.33-1.99-3.12-2.64-5.35-.65-2.24-.98-5.02-.98-8.35s.33-5.96.98-8.16ZM302.48,21.96c.06,1.35.26,2.65.59,3.9s.86,2.33,1.59,3.21c.73.89,1.78,1.33,3.14,1.33s2.47-.44,3.21-1.33c.75-.89,1.29-1.96,1.62-3.21s.53-2.55.59-3.9.1-2.5.1-3.45c0-.57,0-1.26-.02-2.07s-.08-1.64-.19-2.5-.27-1.71-.48-2.55c-.21-.84-.52-1.59-.93-2.26s-.94-1.21-1.57-1.62c-.64-.41-1.41-.62-2.33-.62s-1.69.21-2.31.62-1.13.95-1.52,1.62-.71,1.42-.93,2.26-.38,1.69-.48,2.55-.15,1.69-.17,2.5c-.02.81-.02,1.5-.02,2.07,0,.95.03,2.1.09,3.45h.02Z"/>
      <path class="cls-1" d="M323.52,9.49c.51-1.63,1.27-3.06,2.29-4.28,1.01-1.22,2.29-2.17,3.83-2.86,1.54-.68,3.31-1.02,5.31-1.02,1.52,0,2.97.24,4.35.71,1.38.48,2.59,1.16,3.64,2.05,1.05.89,1.88,1.98,2.5,3.28s.93,2.76.93,4.38-.27,3.13-.81,4.33c-.54,1.21-1.25,2.28-2.14,3.21-.89.94-1.9,1.78-3.02,2.55-1.13.76-2.26,1.52-3.4,2.26-1.14.75-2.25,1.55-3.33,2.4-1.08.86-2.03,1.86-2.86,3h15.75v5.81h-24.46c0-1.93.28-3.62.83-5.04.55-1.43,1.31-2.7,2.26-3.83.95-1.13,2.07-2.17,3.36-3.12s2.64-1.92,4.07-2.9c.73-.51,1.51-1.02,2.33-1.55.82-.52,1.58-1.1,2.26-1.74.68-.63,1.25-1.35,1.71-2.14s.69-1.7.69-2.71c0-1.62-.47-2.88-1.4-3.78-.94-.9-2.13-1.36-3.59-1.36-.98,0-1.82.23-2.5.69s-1.23,1.06-1.64,1.81-.71,1.57-.88,2.47-.26,1.8-.26,2.69h-6.47c-.06-1.9.16-3.67.67-5.31h-.02Z"/>
      <path class="cls-1" d="M360.74,15.46c.82-.06,1.59-.25,2.31-.55.71-.3,1.3-.74,1.76-1.31s.69-1.33.69-2.28c0-1.43-.48-2.52-1.43-3.28s-2.05-1.14-3.28-1.14c-1.71,0-3.01.56-3.88,1.69s-1.29,2.55-1.26,4.26h-6.42c.06-1.71.37-3.28.93-4.69.55-1.41,1.33-2.62,2.33-3.64s2.2-1.8,3.59-2.36c1.4-.55,2.95-.83,4.66-.83,1.33,0,2.67.2,4,.6s2.53.99,3.59,1.78,1.93,1.76,2.59,2.9c.67,1.14,1,2.46,1,3.95,0,1.62-.39,3.05-1.17,4.28s-1.94,2.08-3.5,2.52v.09c1.84.41,3.28,1.3,4.33,2.67s1.57,3,1.57,4.9c0,1.75-.34,3.3-1.02,4.66-.68,1.37-1.59,2.51-2.74,3.43-1.14.92-2.46,1.62-3.95,2.09-1.49.48-3.05.71-4.66.71-1.87,0-3.58-.27-5.12-.81s-2.85-1.32-3.93-2.36c-1.08-1.03-1.91-2.29-2.5-3.78s-.87-3.2-.83-5.14h6.42c.03.89.17,1.74.43,2.55.25.81.62,1.51,1.09,2.09s1.07,1.05,1.78,1.4,1.56.52,2.55.52c1.52,0,2.81-.47,3.85-1.4s1.57-2.21,1.57-3.83c0-1.27-.25-2.24-.74-2.9-.49-.67-1.12-1.15-1.88-1.45-.76-.3-1.59-.48-2.5-.52s-1.77-.07-2.59-.07v-4.76c.73.06,1.51.06,2.33,0h.03Z"/>
      <path class="cls-1" d="M401.05,1.32l7.95,23.37h.09l7.52-23.37h10.52v33.98h-7V11.22h-.1l-8.33,24.08h-5.76l-8.33-23.84h-.09v23.84h-7V1.32h10.53Z"/>
      <path class="cls-1" d="M450.64,1.32l12.71,33.98h-7.76l-2.57-7.57h-12.71l-2.67,7.57h-7.52l12.85-33.98h7.67ZM451.07,22.17l-4.28-12.47h-.1l-4.43,12.47h8.81Z"/>
      <path class="cls-1" d="M480.95,1.32c2.19,0,4.23.35,6.12,1.05s3.52,1.75,4.9,3.14c1.38,1.4,2.46,3.14,3.24,5.24.78,2.09,1.17,4.55,1.17,7.38,0,2.47-.32,4.76-.95,6.85s-1.59,3.9-2.88,5.42c-1.29,1.52-2.89,2.72-4.81,3.59s-4.18,1.31-6.78,1.31h-14.66V1.32h14.66,0ZM480.43,29.02c1.08,0,2.12-.17,3.14-.52,1.02-.35,1.92-.93,2.71-1.74.79-.81,1.43-1.86,1.9-3.17.48-1.3.71-2.89.71-4.76,0-1.71-.17-3.26-.5-4.64s-.88-2.56-1.64-3.55c-.76-.98-1.77-1.74-3.02-2.26-1.25-.52-2.8-.79-4.64-.79h-5.33v21.42h6.67Z"/>
      <path class="cls-1" d="M543.39,1.32v33.98h-7.47V1.32h7.47Z"/>
      <path class="cls-1" d="M564.62,1.32c2.19,0,4.23.35,6.12,1.05s3.52,1.75,4.9,3.14c1.38,1.4,2.46,3.14,3.24,5.24.78,2.09,1.17,4.55,1.17,7.38,0,2.47-.32,4.76-.95,6.85s-1.59,3.9-2.88,5.42c-1.29,1.52-2.89,2.72-4.81,3.59s-4.18,1.31-6.78,1.31h-14.66V1.32h14.66,0ZM564.1,29.02c1.08,0,2.12-.17,3.14-.52,1.02-.35,1.92-.93,2.71-1.74.79-.81,1.43-1.86,1.9-3.17.48-1.3.71-2.89.71-4.76,0-1.71-.17-3.26-.5-4.64s-.88-2.56-1.64-3.55c-.76-.98-1.77-1.74-3.02-2.26-1.25-.52-2.8-.79-4.64-.79h-5.33v21.42h6.67Z"/>
      <path class="cls-1" d="M592.32,27.98v7.33c0,1.08-.2,2.07-.59,2.97-.4.9-.93,1.69-1.59,2.36-.67.67-1.45,1.21-2.36,1.64-.9.43-1.86.72-2.88.88v-3.43c.48-.09.93-.29,1.36-.57.43-.29.8-.63,1.12-1.02.32-.4.55-.84.71-1.33.16-.49.22-.99.19-1.5h-3.43v-7.33h7.47Z"/>
      <path class="cls-1" d="M617.4,26.93c.41.79.96,1.44,1.64,1.93s1.48.86,2.4,1.09c.92.24,1.87.36,2.86.36.67,0,1.38-.05,2.14-.17.76-.11,1.48-.32,2.14-.64.67-.32,1.22-.75,1.67-1.31.44-.55.67-1.26.67-2.12,0-.92-.29-1.67-.88-2.24-.59-.57-1.36-1.05-2.31-1.43s-2.03-.71-3.24-1c-1.21-.29-2.43-.6-3.66-.95-1.27-.32-2.51-.71-3.71-1.17s-2.28-1.05-3.24-1.79c-.95-.73-1.72-1.64-2.31-2.74-.59-1.09-.88-2.42-.88-3.97,0-1.75.37-3.26,1.12-4.55.75-1.28,1.72-2.36,2.93-3.21,1.21-.86,2.57-1.49,4.09-1.9s3.05-.62,4.57-.62c1.78,0,3.48.2,5.12.59,1.63.4,3.09,1.04,4.36,1.93,1.27.89,2.28,2.02,3.02,3.4.75,1.38,1.12,3.05,1.12,5.02h-7.23c-.06-1.01-.28-1.86-.64-2.52-.37-.67-.85-1.19-1.45-1.57-.6-.38-1.29-.65-2.07-.81s-1.63-.24-2.55-.24c-.6,0-1.21.06-1.81.19s-1.15.35-1.64.67-.9.71-1.21,1.19c-.32.48-.48,1.08-.48,1.81,0,.67.13,1.21.38,1.62s.75.79,1.5,1.14,1.78.7,3.09,1.05c1.32.35,3.04.79,5.16,1.33.63.13,1.52.36,2.64.69s2.24.87,3.36,1.59c1.11.73,2.07,1.71,2.88,2.93s1.21,2.78,1.21,4.69c0,1.56-.3,3-.9,4.33-.6,1.33-1.5,2.48-2.69,3.45s-2.67,1.72-4.43,2.26-3.8.81-6.12.81c-1.87,0-3.69-.23-5.45-.69s-3.32-1.18-4.66-2.17c-1.35-.98-2.42-2.24-3.21-3.76-.79-1.52-1.17-3.33-1.14-5.43h7.23c0,1.14.21,2.11.62,2.9v.03Z"/>
      <path class="cls-1" d="M657.9,1.32c2.13,0,3.93.31,5.43.93,1.49.62,2.71,1.44,3.64,2.45s1.62,2.17,2.05,3.47.64,2.65.64,4.05-.21,2.71-.64,4.02c-.43,1.32-1.11,2.48-2.05,3.5s-2.15,1.83-3.64,2.45c-1.49.62-3.3.93-5.43.93h-7.85v12.18h-7.47V1.32h15.32,0ZM655.85,17.31c.86,0,1.68-.06,2.47-.19s1.49-.37,2.09-.74c.6-.36,1.09-.88,1.45-1.55.36-.67.55-1.54.55-2.62s-.18-1.95-.55-2.62c-.37-.67-.85-1.18-1.45-1.55-.6-.36-1.3-.61-2.09-.74-.79-.13-1.62-.19-2.47-.19h-5.81v10.18h5.81v.02Z"/>
      <path class="cls-1" d="M687.74,1.32l12.71,33.98h-7.76l-2.57-7.57h-12.71l-2.67,7.57h-7.52l12.85-33.98h7.67ZM688.17,22.17l-4.28-12.47h-.1l-4.43,12.47h8.81Z"/>
      <path class="cls-1" d="M710.87,1.32v33.98h-7.47V1.32h7.47Z"/>
      <path class="cls-1" d="M724.86,1.32l14.18,22.8h.1V1.32h7v33.98h-7.47l-14.13-22.75h-.09v22.75h-7V1.32h7.42,0Z"/>
      <path class="cls-1" d="M28.24,22.73c-.86-1.48-2.27-2.49-4.23-3.26,1.96-.77,3.36-1.9,4.23-3.38.86-1.48,1.3-3.23,1.3-5.26,0-1.32-.24-2.55-.71-3.69s-1.16-2.15-2.05-3.02c-.9-.87-1.97-1.55-3.23-2.05-1.26-.5-2.66-.75-4.23-.75H.5v34.44h7.68v-13.46h7.68c2.67-.01,5.93.05,6.01,4.58v8.88h7.68v-7.78c0-2.03-.44-3.78-1.3-5.26h0ZM16.58,16.91h-8.41V7.21h8.41c1.76,0,3.08.38,3.96,1.14.88.75,1.32,1.97,1.32,3.64s-.44,2.99-1.32,3.76-2.2,1.16-3.96,1.16h0Z"/>
      <path class="cls-1" d="M529.01,22.44c-.85-1.46-2.24-2.45-4.17-3.21,1.93-.76,3.32-1.87,4.17-3.33s1.28-3.19,1.28-5.18c0-1.3-.23-2.51-.7-3.64-.47-1.13-1.14-2.12-2.02-2.97s-1.95-1.53-3.18-2.02c-1.24-.49-2.63-.74-4.17-.74h-18.55v33.95h7.56v-13.27h7.56c2.63-.01,5.85.05,5.93,4.52v8.75h7.57v-7.67c0-2-.43-3.73-1.28-5.18h0ZM517.52,16.71h-8.29V7.15h8.29c1.73,0,3.03.37,3.9,1.12.87.74,1.3,1.94,1.3,3.59s-.43,2.95-1.3,3.71c-.87.76-2.17,1.14-3.9,1.14Z"/>
    </g>
  </g>
</svg>